<svg xmlns="http://www.w3.org/2000/svg" viewBox="0 0 256 256" role="img" aria-labelledby="title desc">
  <title id="title">Urban Yatras Icon</title>
  <desc id="desc">Dark rounded-square Urban Yatras icon with UY monogram and gradient underline</desc>
  <defs>
    <linearGradient id="underline" x1="44" y1="216" x2="192" y2="216" gradientUnits="userSpaceOnUse">
      <stop offset="0" stop-color="#f38a2e"/>
      <stop offset="0.55" stop-color="#c8a77d"/>
      <stop offset="1" stop-color="#2ee2cf"/>
    </linearGradient>
  </defs>
  <rect x="2" y="2" width="252" height="252" rx="46" fill="#324352"/>
  <rect x="11" y="11" width="234" height="234" rx="40" fill="none" stroke="#4b5c6b" stroke-width="5"/>
  <path d="M52 90h24v51c0 16.017 12.983 29 29 29s29-12.983 29-29V90h24v52c0 29.271-23.729 53-53 53s-53-23.729-53-53V90Z" fill="#f2f2f0"/>
  <path d="M105 90h33.5l14.5 33.5L167.5 90H193l-28.5 60V179h-24v-29.5L105 90Z" fill="#ff8c22"/>
  <rect x="44" y="208" width="148" height="11" rx="0" fill="url(#underline)"/>
</svg>
